<?xml version="1.0" encoding="UTF-8"?>
<svg xmlns="http://www.w3.org/2000/svg" width="1105" height="268" viewBox="0 0 1105 268" role="img" aria-labelledby="title desc">
  <title id="title">PetPark traced vector logo</title>
  <desc id="desc">Vector trace of the supplied PetPark logo image, split into orange and teal shapes.</desc>
  <defs>
    <linearGradient id="orange" x1="0" y1="0" x2="1105" y2="268" gradientUnits="userSpaceOnUse">
      <stop offset="0%" stop-color="#FFB12A"/>
      <stop offset="55%" stop-color="#FF9418"/>
      <stop offset="100%" stop-color="#F57913"/>
    </linearGradient>
    <linearGradient id="teal" x1="0" y1="0" x2="1105" y2="268" gradientUnits="userSpaceOnUse">
      <stop offset="0%" stop-color="#15BEB8"/>
      <stop offset="58%" stop-color="#00A99D"/>
      <stop offset="100%" stop-color="#008C86"/>
    </linearGradient>
  </defs>
  <g id="petpark-traced-shapes" fill-rule="evenodd">
    <path id="orange-shapes" d="M 494.00 110.00 L 477.00 120.00 L 469.00 129.00 L 463.00 140.00 L 459.00 155.00 L 460.00 174.00 L 463.00 185.00 L 470.00 196.00 L 478.00 204.00 L 495.00 212.00 L 503.00 214.00 L 525.00 214.00 L 539.00 210.00 L 548.00 205.00 L 556.00 198.00 L 558.00 192.00 L 553.00 186.00 L 544.00 180.00 L 540.00 179.00 L 533.00 185.00 L 525.00 189.00 L 510.00 190.00 L 497.00 184.00 L 492.00 178.00 L 490.00 171.00 L 493.00 169.00 L 559.00 169.00 L 562.00 167.00 L 564.00 162.00 L 563.00 148.00 L 559.00 135.00 L 555.00 128.00 L 547.00 119.00 L 531.00 110.00 L 516.00 107.00 L 508.00 107.00 Z M 491.00 146.00 L 494.00 140.00 L 499.00 135.00 L 509.00 131.00 L 516.00 131.00 L 525.00 134.00 L 532.00 141.00 L 534.00 149.00 L 532.00 151.00 L 492.00 151.00 Z M 589.00 83.00 L 585.00 89.00 L 585.00 109.00 L 574.00 110.00 L 569.00 114.00 L 570.00 133.00 L 574.00 135.00 L 585.00 136.00 L 585.00 182.00 L 587.00 193.00 L 591.00 201.00 L 604.00 211.00 L 615.00 214.00 L 627.00 214.00 L 638.00 212.00 L 642.00 210.00 L 645.00 206.00 L 645.00 190.00 L 642.00 186.00 L 624.00 187.00 L 618.00 182.00 L 616.00 174.00 L 617.00 168.00 L 616.00 167.00 L 616.00 140.00 L 618.00 135.00 L 643.00 134.00 L 645.00 130.00 L 645.00 115.00 L 640.00 110.00 L 618.00 110.00 L 616.00 106.00 L 617.00 91.00 L 616.00 87.00 L 610.00 82.00 Z M 427.00 76.00 L 408.00 72.00 L 352.00 72.00 L 346.00 76.00 L 344.00 80.00 L 344.00 205.00 L 349.00 212.00 L 369.00 213.00 L 375.00 210.00 L 377.00 206.00 L 377.00 172.00 L 379.00 170.00 L 413.00 170.00 L 430.00 165.00 L 439.00 159.00 L 448.00 149.00 L 455.00 131.00 L 454.00 106.00 L 447.00 91.00 L 439.00 83.00 Z M 377.00 103.00 L 379.00 101.00 L 405.00 101.00 L 413.00 104.00 L 421.00 114.00 L 421.00 128.00 L 419.00 133.00 L 413.00 139.00 L 406.00 142.00 L 379.00 143.00 L 377.00 141.00 Z M 68.00 31.00 L 56.00 38.00 L 44.00 49.00 L 38.00 57.00 L 31.00 71.00 L 26.00 92.00 L 26.00 108.00 L 30.00 127.00 L 33.00 136.00 L 43.00 155.00 L 63.00 181.00 L 87.00 203.00 L 121.00 226.00 L 134.00 232.00 L 137.00 235.00 L 154.00 241.00 L 163.00 239.00 L 186.00 228.00 L 210.00 213.00 L 234.00 194.00 L 253.00 174.00 L 270.00 150.00 L 279.00 130.00 L 282.00 119.00 L 284.00 105.00 L 283.00 86.00 L 279.00 71.00 L 272.00 57.00 L 267.00 50.00 L 253.00 37.00 L 238.00 29.00 L 224.00 26.00 L 200.00 27.00 L 190.00 30.00 L 176.00 38.00 L 164.00 49.00 L 159.00 57.00 L 155.00 60.00 L 139.00 41.00 L 121.00 30.00 L 106.00 26.00 L 86.00 26.00 Z M 97.00 69.00 L 109.00 66.00 L 120.00 66.00 L 130.00 68.00 L 141.00 73.00 L 147.00 77.00 L 154.00 85.00 L 156.00 85.00 L 165.00 76.00 L 175.00 70.00 L 189.00 66.00 L 202.00 66.00 L 216.00 70.00 L 228.00 78.00 L 236.00 87.00 L 243.00 100.00 L 246.00 115.00 L 245.00 134.00 L 237.00 158.00 L 230.00 171.00 L 215.00 191.00 L 199.00 207.00 L 184.00 219.00 L 157.00 235.00 L 154.00 235.00 L 144.00 230.00 L 127.00 219.00 L 108.00 204.00 L 90.00 185.00 L 79.00 169.00 L 68.00 145.00 L 64.00 126.00 L 64.00 114.00 L 66.00 103.00 L 72.00 90.00 L 78.00 82.00 L 86.00 75.00 Z" fill="url(#orange)"/>
    <path id="teal-shapes" d="M 151.00 141.00 L 140.00 146.00 L 118.00 167.00 L 113.00 176.00 L 112.00 184.00 L 115.00 194.00 L 125.00 204.00 L 144.00 214.00 L 157.00 218.00 L 177.00 209.00 L 189.00 201.00 L 196.00 192.00 L 198.00 186.00 L 198.00 179.00 L 194.00 170.00 L 172.00 147.00 L 163.00 142.00 Z M 95.00 123.00 L 91.00 128.00 L 89.00 134.00 L 89.00 138.00 L 93.00 149.00 L 97.00 154.00 L 103.00 158.00 L 114.00 157.00 L 118.00 153.00 L 120.00 147.00 L 120.00 141.00 L 116.00 131.00 L 108.00 123.00 L 105.00 122.00 Z M 213.00 122.00 L 208.00 121.00 L 201.00 124.00 L 195.00 130.00 L 192.00 136.00 L 191.00 150.00 L 193.00 154.00 L 198.00 158.00 L 209.00 157.00 L 216.00 151.00 L 219.00 146.00 L 221.00 133.00 L 219.00 127.00 Z M 958.00 109.00 L 943.00 110.00 L 936.00 114.00 L 927.00 124.00 L 925.00 123.00 L 924.00 114.00 L 920.00 110.00 L 905.00 109.00 L 897.00 113.00 L 896.00 115.00 L 896.00 207.00 L 899.00 211.00 L 921.00 212.00 L 926.00 207.00 L 927.00 155.00 L 931.00 147.00 L 936.00 142.00 L 944.00 138.00 L 958.00 137.00 L 962.00 134.00 L 962.00 113.00 Z M 794.00 119.00 L 790.00 123.00 L 789.00 128.00 L 793.00 134.00 L 800.00 140.00 L 805.00 141.00 L 815.00 134.00 L 821.00 132.00 L 834.00 131.00 L 841.00 133.00 L 847.00 138.00 L 849.00 142.00 L 849.00 149.00 L 848.00 150.00 L 822.00 149.00 L 809.00 151.00 L 800.00 154.00 L 789.00 161.00 L 784.00 167.00 L 780.00 179.00 L 781.00 191.00 L 786.00 201.00 L 795.00 209.00 L 810.00 214.00 L 830.00 213.00 L 841.00 208.00 L 848.00 202.00 L 850.00 203.00 L 851.00 209.00 L 855.00 212.00 L 874.00 212.00 L 878.00 210.00 L 879.00 207.00 L 879.00 140.00 L 876.00 130.00 L 871.00 122.00 L 863.00 115.00 L 855.00 111.00 L 844.00 108.00 L 816.00 109.00 L 804.00 113.00 Z M 848.00 166.00 L 849.00 167.00 L 848.00 180.00 L 840.00 189.00 L 834.00 192.00 L 824.00 193.00 L 816.00 190.00 L 812.00 185.00 L 812.00 176.00 L 817.00 170.00 L 828.00 166.00 Z M 182.00 91.00 L 171.00 92.00 L 165.00 98.00 L 162.00 104.00 L 161.00 121.00 L 164.00 128.00 L 168.00 132.00 L 173.00 134.00 L 182.00 131.00 L 190.00 119.00 L 191.00 114.00 L 190.00 99.00 Z M 129.00 91.00 L 124.00 94.00 L 121.00 98.00 L 119.00 104.00 L 119.00 115.00 L 126.00 129.00 L 132.00 133.00 L 138.00 134.00 L 141.00 133.00 L 148.00 125.00 L 150.00 118.00 L 148.00 103.00 L 142.00 94.00 L 137.00 91.00 Z M 1077.00 76.00 L 1051.00 82.00 L 1041.00 87.00 L 1033.00 95.00 L 1027.00 107.00 L 1027.00 111.00 L 1025.00 115.00 L 1025.00 123.00 L 1026.00 124.00 L 1033.00 118.00 L 1035.00 118.00 L 1036.00 120.00 L 1029.00 128.00 L 1044.00 129.00 L 1052.00 127.00 L 1061.00 122.00 L 1069.00 114.00 L 1076.00 100.00 L 1078.00 90.00 Z M 1041.00 112.00 L 1042.00 114.00 L 1036.00 119.00 L 1035.00 117.00 Z M 978.00 73.00 L 974.00 79.00 L 974.00 206.00 L 975.00 209.00 L 979.00 212.00 L 1000.00 212.00 L 1004.00 208.00 L 1005.00 178.00 L 1014.00 169.00 L 1021.00 177.00 L 1040.00 206.00 L 1045.00 211.00 L 1075.00 212.00 L 1077.00 210.00 L 1076.00 203.00 L 1024.00 130.00 L 1008.00 145.00 L 1005.00 144.00 L 1005.00 79.00 L 1004.00 76.00 L 998.00 72.00 Z M 750.00 77.00 L 738.00 73.00 L 729.00 72.00 L 672.00 72.00 L 666.00 77.00 L 665.00 79.00 L 665.00 206.00 L 669.00 211.00 L 693.00 212.00 L 698.00 207.00 L 698.00 173.00 L 701.00 170.00 L 733.00 170.00 L 749.00 166.00 L 759.00 160.00 L 770.00 148.00 L 776.00 133.00 L 775.00 104.00 L 766.00 88.00 L 759.00 82.00 Z M 698.00 103.00 L 703.00 100.00 L 715.00 101.00 L 718.00 100.00 L 732.00 102.00 L 740.00 109.00 L 743.00 115.00 L 743.00 128.00 L 740.00 134.00 L 735.00 139.00 L 725.00 143.00 L 701.00 143.00 L 698.00 140.00 Z" fill="url(#teal)"/>
  </g>
</svg>